<svg width="152" height="152" viewBox="0 0 152 152" fill="none" xmlns="http://www.w3.org/2000/svg">
<g opacity="0.4">
<path d="M145.841 35.9242C146.259 36.6495 146.667 37.3818 147.064 38.121C146.344 37.6499 145.862 36.8439 145.841 35.9242Z" fill="#F6AA1C"/>
<path d="M131.057 17.2838C132.315 18.4645 133.536 19.6849 134.716 20.9431C134.26 21.7869 133.367 22.36 132.34 22.36C130.849 22.36 129.64 21.1512 129.64 19.66C129.64 18.6332 130.213 17.7403 131.057 17.2838Z" fill="#F6AA1C"/>
<path d="M113.879 4.93628C114.618 5.33287 115.351 5.74061 116.076 6.15926C115.156 6.13779 114.35 5.65645 113.879 4.93628Z" fill="#F6AA1C"/>
<path d="M35.2043 6.15926C35.9295 5.74061 36.6619 5.33287 37.4011 4.93628C36.9299 5.65645 36.124 6.13779 35.2043 6.15926Z" fill="#F6AA1C"/>
<path d="M16.5638 20.9431C17.7445 19.6849 18.9649 18.4645 20.2231 17.2838C21.0669 17.7403 21.64 18.6332 21.64 19.66C21.64 21.1512 20.4312 22.36 18.94 22.36C17.9133 22.36 17.0204 21.7869 16.5638 20.9431Z" fill="#F6AA1C"/>
<path d="M4.21631 38.121C4.6129 37.3818 5.02064 36.6495 5.43929 35.9242C5.41782 36.8439 4.93648 37.6499 4.21631 38.121Z" fill="#F6AA1C"/>
<path d="M147.064 114.599C146.667 115.338 146.259 116.071 145.841 116.796C145.862 115.876 146.344 115.07 147.064 114.599Z" fill="#F6AA1C"/>
<path d="M134.716 131.777C134.26 130.933 133.367 130.36 132.34 130.36C130.849 130.36 129.64 131.569 129.64 133.06C129.64 134.087 130.213 134.98 131.057 135.436C132.315 134.256 133.536 133.035 134.716 131.777Z" fill="#F6AA1C"/>
<path d="M116.076 146.561C115.156 146.582 114.35 147.064 113.879 147.784C114.618 147.387 115.351 146.979 116.076 146.561Z" fill="#F6AA1C"/>
<path d="M37.4011 147.784C36.9299 147.064 36.124 146.582 35.2043 146.561C35.9295 146.979 36.6619 147.387 37.4011 147.784Z" fill="#F6AA1C"/>
<path d="M20.2231 135.436C21.0669 134.98 21.64 134.087 21.64 133.06C21.64 131.569 20.4312 130.36 18.94 130.36C17.9133 130.36 17.0204 130.933 16.5638 131.777C17.7445 133.035 18.9649 134.256 20.2231 135.436Z" fill="#F6AA1C"/>
<path d="M5.43929 116.796C5.41782 115.876 4.93648 115.07 4.21631 114.599C4.6129 115.338 5.02064 116.071 5.43929 116.796Z" fill="#F6AA1C"/>
<path d="M54.04 3.46001C54.04 4.95118 52.8312 6.16001 51.34 6.16001C49.8489 6.16001 48.64 4.95118 48.64 3.46001C48.64 1.96884 49.8489 0.76001 51.34 0.76001C52.8312 0.76001 54.04 1.96884 54.04 3.46001Z" fill="#F6AA1C"/>
<path d="M70.24 3.46001C70.24 4.95118 69.0312 6.16001 67.54 6.16001C66.0489 6.16001 64.84 4.95118 64.84 3.46001C64.84 1.96884 66.0489 0.76001 67.54 0.76001C69.0312 0.76001 70.24 1.96884 70.24 3.46001Z" fill="#F6AA1C"/>
<path d="M86.44 3.46001C86.44 4.95118 85.2312 6.16001 83.74 6.16001C82.2489 6.16001 81.04 4.95118 81.04 3.46001C81.04 1.96884 82.2489 0.76001 83.74 0.76001C85.2312 0.76001 86.44 1.96884 86.44 3.46001Z" fill="#F6AA1C"/>
<path d="M102.64 3.46001C102.64 4.95118 101.431 6.16001 99.94 6.16001C98.4489 6.16001 97.24 4.95118 97.24 3.46001C97.24 1.96884 98.4489 0.76001 99.94 0.76001C101.431 0.76001 102.64 1.96884 102.64 3.46001Z" fill="#F6AA1C"/>
<path d="M37.84 19.66C37.84 21.1512 36.6312 22.36 35.14 22.36C33.6489 22.36 32.44 21.1512 32.44 19.66C32.44 18.1688 33.6489 16.96 35.14 16.96C36.6312 16.96 37.84 18.1688 37.84 19.66Z" fill="#F6AA1C"/>
<path d="M54.04 19.66C54.04 21.1512 52.8312 22.36 51.34 22.36C49.8489 22.36 48.64 21.1512 48.64 19.66C48.64 18.1688 49.8489 16.96 51.34 16.96C52.8312 16.96 54.04 18.1688 54.04 19.66Z" fill="#F6AA1C"/>
<path d="M70.24 19.66C70.24 21.1512 69.0312 22.36 67.54 22.36C66.0489 22.36 64.84 21.1512 64.84 19.66C64.84 18.1688 66.0489 16.96 67.54 16.96C69.0312 16.96 70.24 18.1688 70.24 19.66Z" fill="#F6AA1C"/>
<path d="M86.44 19.66C86.44 21.1512 85.2312 22.36 83.74 22.36C82.2489 22.36 81.04 21.1512 81.04 19.66C81.04 18.1688 82.2489 16.96 83.74 16.96C85.2312 16.96 86.44 18.1688 86.44 19.66Z" fill="#F6AA1C"/>
<path d="M102.64 19.66C102.64 21.1512 101.431 22.36 99.94 22.36C98.4489 22.36 97.24 21.1512 97.24 19.66C97.24 18.1688 98.4489 16.96 99.94 16.96C101.431 16.96 102.64 18.1688 102.64 19.66Z" fill="#F6AA1C"/>
<path d="M118.84 19.66C118.84 21.1512 117.631 22.36 116.14 22.36C114.649 22.36 113.44 21.1512 113.44 19.66C113.44 18.1688 114.649 16.96 116.14 16.96C117.631 16.96 118.84 18.1688 118.84 19.66Z" fill="#F6AA1C"/>
<path d="M21.64 35.86C21.64 37.3512 20.4312 38.56 18.94 38.56C17.4489 38.56 16.24 37.3512 16.24 35.86C16.24 34.3688 17.4489 33.16 18.94 33.16C20.4312 33.16 21.64 34.3688 21.64 35.86Z" fill="#F6AA1C"/>
<path d="M37.84 35.86C37.84 37.3512 36.6312 38.56 35.14 38.56C33.6489 38.56 32.44 37.3512 32.44 35.86C32.44 34.3688 33.6489 33.16 35.14 33.16C36.6312 33.16 37.84 34.3688 37.84 35.86Z" fill="#F6AA1C"/>
<path d="M54.04 35.86C54.04 37.3512 52.8312 38.56 51.34 38.56C49.8489 38.56 48.64 37.3512 48.64 35.86C48.64 34.3688 49.8489 33.16 51.34 33.16C52.8312 33.16 54.04 34.3688 54.04 35.86Z" fill="#F6AA1C"/>
<path d="M70.24 35.86C70.24 37.3512 69.0312 38.56 67.54 38.56C66.0489 38.56 64.84 37.3512 64.84 35.86C64.84 34.3688 66.0489 33.16 67.54 33.16C69.0312 33.16 70.24 34.3688 70.24 35.86Z" fill="#F6AA1C"/>
<path d="M86.44 35.86C86.44 37.3512 85.2312 38.56 83.74 38.56C82.2489 38.56 81.04 37.3512 81.04 35.86C81.04 34.3688 82.2489 33.16 83.74 33.16C85.2312 33.16 86.44 34.3688 86.44 35.86Z" fill="#F6AA1C"/>
<path d="M102.64 35.86C102.64 37.3512 101.431 38.56 99.94 38.56C98.4489 38.56 97.24 37.3512 97.24 35.86C97.24 34.3688 98.4489 33.16 99.94 33.16C101.431 33.16 102.64 34.3688 102.64 35.86Z" fill="#F6AA1C"/>
<path d="M118.84 35.86C118.84 37.3512 117.631 38.56 116.14 38.56C114.649 38.56 113.44 37.3512 113.44 35.86C113.44 34.3688 114.649 33.16 116.14 33.16C117.631 33.16 118.84 34.3688 118.84 35.86Z" fill="#F6AA1C"/>
<path d="M135.04 35.86C135.04 37.3512 133.831 38.56 132.34 38.56C130.849 38.56 129.64 37.3512 129.64 35.86C129.64 34.3688 130.849 33.16 132.34 33.16C133.831 33.16 135.04 34.3688 135.04 35.86Z" fill="#F6AA1C"/>
<path d="M5.44004 52.06C5.44004 53.5512 4.23121 54.76 2.74004 54.76C1.24887 54.76 0.0400391 53.5512 0.0400391 52.06C0.0400391 50.5688 1.24887 49.36 2.74004 49.36C4.23121 49.36 5.44004 50.5688 5.44004 52.06Z" fill="#F6AA1C"/>
<path d="M21.64 52.06C21.64 53.5512 20.4312 54.76 18.94 54.76C17.4489 54.76 16.24 53.5512 16.24 52.06C16.24 50.5688 17.4489 49.36 18.94 49.36C20.4312 49.36 21.64 50.5688 21.64 52.06Z" fill="#F6AA1C"/>
<path d="M37.84 52.06C37.84 53.5512 36.6312 54.76 35.14 54.76C33.6489 54.76 32.44 53.5512 32.44 52.06C32.44 50.5688 33.6489 49.36 35.14 49.36C36.6312 49.36 37.84 50.5688 37.84 52.06Z" fill="#F6AA1C"/>
<path d="M54.04 52.06C54.04 53.5512 52.8312 54.76 51.34 54.76C49.8489 54.76 48.64 53.5512 48.64 52.06C48.64 50.5688 49.8489 49.36 51.34 49.36C52.8312 49.36 54.04 50.5688 54.04 52.06Z" fill="#F6AA1C"/>
<path d="M70.24 52.06C70.24 53.5512 69.0312 54.76 67.54 54.76C66.0489 54.76 64.84 53.5512 64.84 52.06C64.84 50.5688 66.0489 49.36 67.54 49.36C69.0312 49.36 70.24 50.5688 70.24 52.06Z" fill="#F6AA1C"/>
<path d="M86.44 52.06C86.44 53.5512 85.2312 54.76 83.74 54.76C82.2489 54.76 81.04 53.5512 81.04 52.06C81.04 50.5688 82.2489 49.36 83.74 49.36C85.2312 49.36 86.44 50.5688 86.44 52.06Z" fill="#F6AA1C"/>
<path d="M102.64 52.06C102.64 53.5512 101.431 54.76 99.94 54.76C98.4489 54.76 97.24 53.5512 97.24 52.06C97.24 50.5688 98.4489 49.36 99.94 49.36C101.431 49.36 102.64 50.5688 102.64 52.06Z" fill="#F6AA1C"/>
<path d="M118.84 52.06C118.84 53.5512 117.631 54.76 116.14 54.76C114.649 54.76 113.44 53.5512 113.44 52.06C113.44 50.5688 114.649 49.36 116.14 49.36C117.631 49.36 118.84 50.5688 118.84 52.06Z" fill="#F6AA1C"/>
<path d="M135.04 52.06C135.04 53.5512 133.831 54.76 132.34 54.76C130.849 54.76 129.64 53.5512 129.64 52.06C129.64 50.5688 130.849 49.36 132.34 49.36C133.831 49.36 135.04 50.5688 135.04 52.06Z" fill="#F6AA1C"/>
<path d="M151.24 52.06C151.24 53.5512 150.031 54.76 148.54 54.76C147.049 54.76 145.84 53.5512 145.84 52.06C145.84 50.5688 147.049 49.36 148.54 49.36C150.031 49.36 151.24 50.5688 151.24 52.06Z" fill="#F6AA1C"/>
<path d="M5.44004 68.26C5.44004 69.7512 4.23121 70.96 2.74004 70.96C1.24887 70.96 0.0400391 69.7512 0.0400391 68.26C0.0400391 66.7688 1.24887 65.56 2.74004 65.56C4.23121 65.56 5.44004 66.7688 5.44004 68.26Z" fill="#F6AA1C"/>
<path d="M21.64 68.26C21.64 69.7512 20.4312 70.96 18.94 70.96C17.4489 70.96 16.24 69.7512 16.24 68.26C16.24 66.7688 17.4489 65.56 18.94 65.56C20.4312 65.56 21.64 66.7688 21.64 68.26Z" fill="#F6AA1C"/>
<path d="M37.84 68.26C37.84 69.7512 36.6312 70.96 35.14 70.96C33.6489 70.96 32.44 69.7512 32.44 68.26C32.44 66.7688 33.6489 65.56 35.14 65.56C36.6312 65.56 37.84 66.7688 37.84 68.26Z" fill="#F6AA1C"/>
<path d="M54.04 68.26C54.04 69.7512 52.8312 70.96 51.34 70.96C49.8489 70.96 48.64 69.7512 48.64 68.26C48.64 66.7688 49.8489 65.56 51.34 65.56C52.8312 65.56 54.04 66.7688 54.04 68.26Z" fill="#F6AA1C"/>
<path d="M70.24 68.26C70.24 69.7512 69.0312 70.96 67.54 70.96C66.0489 70.96 64.84 69.7512 64.84 68.26C64.84 66.7688 66.0489 65.56 67.54 65.56C69.0312 65.56 70.24 66.7688 70.24 68.26Z" fill="#F6AA1C"/>
<path d="M86.44 68.26C86.44 69.7512 85.2312 70.96 83.74 70.96C82.2489 70.96 81.04 69.7512 81.04 68.26C81.04 66.7688 82.2489 65.56 83.74 65.56C85.2312 65.56 86.44 66.7688 86.44 68.26Z" fill="#F6AA1C"/>
<path d="M102.64 68.26C102.64 69.7512 101.431 70.96 99.94 70.96C98.4489 70.96 97.24 69.7512 97.24 68.26C97.24 66.7688 98.4489 65.56 99.94 65.56C101.431 65.56 102.64 66.7688 102.64 68.26Z" fill="#F6AA1C"/>
<path d="M118.84 68.26C118.84 69.7512 117.631 70.96 116.14 70.96C114.649 70.96 113.44 69.7512 113.44 68.26C113.44 66.7688 114.649 65.56 116.14 65.56C117.631 65.56 118.84 66.7688 118.84 68.26Z" fill="#F6AA1C"/>
<path d="M135.04 68.26C135.04 69.7512 133.831 70.96 132.34 70.96C130.849 70.96 129.64 69.7512 129.64 68.26C129.64 66.7688 130.849 65.56 132.34 65.56C133.831 65.56 135.04 66.7688 135.04 68.26Z" fill="#F6AA1C"/>
<path d="M151.24 68.26C151.24 69.7512 150.031 70.96 148.54 70.96C147.049 70.96 145.84 69.7512 145.84 68.26C145.84 66.7688 147.049 65.56 148.54 65.56C150.031 65.56 151.24 66.7688 151.24 68.26Z" fill="#F6AA1C"/>
<path d="M5.44004 84.46C5.44004 85.9512 4.23121 87.16 2.74004 87.16C1.24887 87.16 0.0400391 85.9512 0.0400391 84.46C0.0400391 82.9688 1.24887 81.76 2.74004 81.76C4.23121 81.76 5.44004 82.9688 5.44004 84.46Z" fill="#F6AA1C"/>
<path d="M21.64 84.46C21.64 85.9512 20.4312 87.16 18.94 87.16C17.4489 87.16 16.24 85.9512 16.24 84.46C16.24 82.9688 17.4489 81.76 18.94 81.76C20.4312 81.76 21.64 82.9688 21.64 84.46Z" fill="#F6AA1C"/>
<path d="M37.84 84.46C37.84 85.9512 36.6312 87.16 35.14 87.16C33.6489 87.16 32.44 85.9512 32.44 84.46C32.44 82.9688 33.6489 81.76 35.14 81.76C36.6312 81.76 37.84 82.9688 37.84 84.46Z" fill="#F6AA1C"/>
<path d="M54.04 84.46C54.04 85.9512 52.8312 87.16 51.34 87.16C49.8489 87.16 48.64 85.9512 48.64 84.46C48.64 82.9688 49.8489 81.76 51.34 81.76C52.8312 81.76 54.04 82.9688 54.04 84.46Z" fill="#F6AA1C"/>
<path d="M70.24 84.46C70.24 85.9512 69.0312 87.16 67.54 87.16C66.0489 87.16 64.84 85.9512 64.84 84.46C64.84 82.9688 66.0489 81.76 67.54 81.76C69.0312 81.76 70.24 82.9688 70.24 84.46Z" fill="#F6AA1C"/>
<path d="M86.44 84.46C86.44 85.9512 85.2312 87.16 83.74 87.16C82.2489 87.16 81.04 85.9512 81.04 84.46C81.04 82.9688 82.2489 81.76 83.74 81.76C85.2312 81.76 86.44 82.9688 86.44 84.46Z" fill="#F6AA1C"/>
<path d="M102.64 84.46C102.64 85.9512 101.431 87.16 99.94 87.16C98.4489 87.16 97.24 85.9512 97.24 84.46C97.24 82.9688 98.4489 81.76 99.94 81.76C101.431 81.76 102.64 82.9688 102.64 84.46Z" fill="#F6AA1C"/>
<path d="M118.84 84.46C118.84 85.9512 117.631 87.16 116.14 87.16C114.649 87.16 113.44 85.9512 113.44 84.46C113.44 82.9688 114.649 81.76 116.14 81.76C117.631 81.76 118.84 82.9688 118.84 84.46Z" fill="#F6AA1C"/>
<path d="M135.04 84.46C135.04 85.9512 133.831 87.16 132.34 87.16C130.849 87.16 129.64 85.9512 129.64 84.46C129.64 82.9688 130.849 81.76 132.34 81.76C133.831 81.76 135.04 82.9688 135.04 84.46Z" fill="#F6AA1C"/>
<path d="M151.24 84.46C151.24 85.9512 150.031 87.16 148.54 87.16C147.049 87.16 145.84 85.9512 145.84 84.46C145.84 82.9688 147.049 81.76 148.54 81.76C150.031 81.76 151.24 82.9688 151.24 84.46Z" fill="#F6AA1C"/>
<path d="M5.44004 100.66C5.44004 102.151 4.23121 103.36 2.74004 103.36C1.24887 103.36 0.0400391 102.151 0.0400391 100.66C0.0400391 99.1688 1.24887 97.96 2.74004 97.96C4.23121 97.96 5.44004 99.1688 5.44004 100.66Z" fill="#F6AA1C"/>
<path d="M21.64 100.66C21.64 102.151 20.4312 103.36 18.94 103.36C17.4489 103.36 16.24 102.151 16.24 100.66C16.24 99.1688 17.4489 97.96 18.94 97.96C20.4312 97.96 21.64 99.1688 21.64 100.66Z" fill="#F6AA1C"/>
<path d="M37.84 100.66C37.84 102.151 36.6312 103.36 35.14 103.36C33.6489 103.36 32.44 102.151 32.44 100.66C32.44 99.1688 33.6489 97.96 35.14 97.96C36.6312 97.96 37.84 99.1688 37.84 100.66Z" fill="#F6AA1C"/>
<path d="M54.04 100.66C54.04 102.151 52.8312 103.36 51.34 103.36C49.8489 103.36 48.64 102.151 48.64 100.66C48.64 99.1688 49.8489 97.96 51.34 97.96C52.8312 97.96 54.04 99.1688 54.04 100.66Z" fill="#F6AA1C"/>
<path d="M70.24 100.66C70.24 102.151 69.0312 103.36 67.54 103.36C66.0489 103.36 64.84 102.151 64.84 100.66C64.84 99.1688 66.0489 97.96 67.54 97.96C69.0312 97.96 70.24 99.1688 70.24 100.66Z" fill="#F6AA1C"/>
<path d="M86.44 100.66C86.44 102.151 85.2312 103.36 83.74 103.36C82.2489 103.36 81.04 102.151 81.04 100.66C81.04 99.1688 82.2489 97.96 83.74 97.96C85.2312 97.96 86.44 99.1688 86.44 100.66Z" fill="#F6AA1C"/>
<path d="M102.64 100.66C102.64 102.151 101.431 103.36 99.94 103.36C98.4489 103.36 97.24 102.151 97.24 100.66C97.24 99.1688 98.4489 97.96 99.94 97.96C101.431 97.96 102.64 99.1688 102.64 100.66Z" fill="#F6AA1C"/>
<path d="M118.84 100.66C118.84 102.151 117.631 103.36 116.14 103.36C114.649 103.36 113.44 102.151 113.44 100.66C113.44 99.1688 114.649 97.96 116.14 97.96C117.631 97.96 118.84 99.1688 118.84 100.66Z" fill="#F6AA1C"/>
<path d="M135.04 100.66C135.04 102.151 133.831 103.36 132.34 103.36C130.849 103.36 129.64 102.151 129.64 100.66C129.64 99.1688 130.849 97.96 132.34 97.96C133.831 97.96 135.04 99.1688 135.04 100.66Z" fill="#F6AA1C"/>
<path d="M151.24 100.66C151.24 102.151 150.031 103.36 148.54 103.36C147.049 103.36 145.84 102.151 145.84 100.66C145.84 99.1688 147.049 97.96 148.54 97.96C150.031 97.96 151.24 99.1688 151.24 100.66Z" fill="#F6AA1C"/>
<path d="M21.64 116.86C21.64 118.351 20.4312 119.56 18.94 119.56C17.4489 119.56 16.24 118.351 16.24 116.86C16.24 115.369 17.4489 114.16 18.94 114.16C20.4312 114.16 21.64 115.369 21.64 116.86Z" fill="#F6AA1C"/>
<path d="M37.84 116.86C37.84 118.351 36.6312 119.56 35.14 119.56C33.6489 119.56 32.44 118.351 32.44 116.86C32.44 115.369 33.6489 114.16 35.14 114.16C36.6312 114.16 37.84 115.369 37.84 116.86Z" fill="#F6AA1C"/>
<path d="M54.04 116.86C54.04 118.351 52.8312 119.56 51.34 119.56C49.8489 119.56 48.64 118.351 48.64 116.86C48.64 115.369 49.8489 114.16 51.34 114.16C52.8312 114.16 54.04 115.369 54.04 116.86Z" fill="#F6AA1C"/>
<path d="M70.24 116.86C70.24 118.351 69.0312 119.56 67.54 119.56C66.0489 119.56 64.84 118.351 64.84 116.86C64.84 115.369 66.0489 114.16 67.54 114.16C69.0312 114.16 70.24 115.369 70.24 116.86Z" fill="#F6AA1C"/>
<path d="M86.44 116.86C86.44 118.351 85.2312 119.56 83.74 119.56C82.2489 119.56 81.04 118.351 81.04 116.86C81.04 115.369 82.2489 114.16 83.74 114.16C85.2312 114.16 86.44 115.369 86.44 116.86Z" fill="#F6AA1C"/>
<path d="M102.64 116.86C102.64 118.351 101.431 119.56 99.94 119.56C98.4489 119.56 97.24 118.351 97.24 116.86C97.24 115.369 98.4489 114.16 99.94 114.16C101.431 114.16 102.64 115.369 102.64 116.86Z" fill="#F6AA1C"/>
<path d="M118.84 116.86C118.84 118.351 117.631 119.56 116.14 119.56C114.649 119.56 113.44 118.351 113.44 116.86C113.44 115.369 114.649 114.16 116.14 114.16C117.631 114.16 118.84 115.369 118.84 116.86Z" fill="#F6AA1C"/>
<path d="M135.04 116.86C135.04 118.351 133.831 119.56 132.34 119.56C130.849 119.56 129.64 118.351 129.64 116.86C129.64 115.369 130.849 114.16 132.34 114.16C133.831 114.16 135.04 115.369 135.04 116.86Z" fill="#F6AA1C"/>
<path d="M37.84 133.06C37.84 134.551 36.6312 135.76 35.14 135.76C33.6489 135.76 32.44 134.551 32.44 133.06C32.44 131.569 33.6489 130.36 35.14 130.36C36.6312 130.36 37.84 131.569 37.84 133.06Z" fill="#F6AA1C"/>
<path d="M54.04 133.06C54.04 134.551 52.8312 135.76 51.34 135.76C49.8489 135.76 48.64 134.551 48.64 133.06C48.64 131.569 49.8489 130.36 51.34 130.36C52.8312 130.36 54.04 131.569 54.04 133.06Z" fill="#F6AA1C"/>
<path d="M70.24 133.06C70.24 134.551 69.0312 135.76 67.54 135.76C66.0489 135.76 64.84 134.551 64.84 133.06C64.84 131.569 66.0489 130.36 67.54 130.36C69.0312 130.36 70.24 131.569 70.24 133.06Z" fill="#F6AA1C"/>
<path d="M86.44 133.06C86.44 134.551 85.2312 135.76 83.74 135.76C82.2489 135.76 81.04 134.551 81.04 133.06C81.04 131.569 82.2489 130.36 83.74 130.36C85.2312 130.36 86.44 131.569 86.44 133.06Z" fill="#F6AA1C"/>
<path d="M102.64 133.06C102.64 134.551 101.431 135.76 99.94 135.76C98.4489 135.76 97.24 134.551 97.24 133.06C97.24 131.569 98.4489 130.36 99.94 130.36C101.431 130.36 102.64 131.569 102.64 133.06Z" fill="#F6AA1C"/>
<path d="M118.84 133.06C118.84 134.551 117.631 135.76 116.14 135.76C114.649 135.76 113.44 134.551 113.44 133.06C113.44 131.569 114.649 130.36 116.14 130.36C117.631 130.36 118.84 131.569 118.84 133.06Z" fill="#F6AA1C"/>
<path d="M54.04 149.26C54.04 150.751 52.8312 151.96 51.34 151.96C49.8489 151.96 48.64 150.751 48.64 149.26C48.64 147.769 49.8489 146.56 51.34 146.56C52.8312 146.56 54.04 147.769 54.04 149.26Z" fill="#F6AA1C"/>
<path d="M70.24 149.26C70.24 150.751 69.0312 151.96 67.54 151.96C66.0489 151.96 64.84 150.751 64.84 149.26C64.84 147.769 66.0489 146.56 67.54 146.56C69.0312 146.56 70.24 147.769 70.24 149.26Z" fill="#F6AA1C"/>
<path d="M86.44 149.26C86.44 150.751 85.2312 151.96 83.74 151.96C82.2489 151.96 81.04 150.751 81.04 149.26C81.04 147.769 82.2489 146.56 83.74 146.56C85.2312 146.56 86.44 147.769 86.44 149.26Z" fill="#F6AA1C"/>
<path d="M102.64 149.26C102.64 150.751 101.431 151.96 99.94 151.96C98.4489 151.96 97.24 150.751 97.24 149.26C97.24 147.769 98.4489 146.56 99.94 146.56C101.431 146.56 102.64 147.769 102.64 149.26Z" fill="#F6AA1C"/>
</g>
</svg>
